<svg width="187" height="31" viewBox="0 0 187 31" fill="none" xmlns="http://www.w3.org/2000/svg">
<path d="M167.382 19H178.435L180.097 22.4413L165.361 22.4644L167.382 19Z" fill="#ffffff"/>
<path d="M182.5 29.5H187L173 0L159 29.5H163.5L166 24L163.5 23L166.5 22.5L168.5 19L173 10L179 22.5L182.5 29.5Z" fill="#ffffff"/>
<path d="M147 29.5L142.5 29.5L139 14L131 31L123 14L119.5 29.5H115L121 0.5L131 21.5L141 0.5L147 29.5Z" fill="#ffffff"/>
<path d="M100.5 25.5C101.369 23.6943 101.595 22.6016 101.5 20.5C101.29 19.1539 101.106 18.4644 100.5 17.5C99.2626 15.7726 98.4008 14.9876 96.5001 14L91.0001 11.5C89.0579 10.6736 88.2516 10.0429 89.0001 8.00002C89.504 6.58033 90.1023 5.98907 92.0001 5.50002C93.3702 5.36205 94.1367 5.45101 95.5001 6.00002C96.4594 6.60567 96.792 7.05269 97.0001 8.00002H101C100.854 5.43097 100.4 4.2688 98.5001 3.00002C96.598 1.80748 95.4087 1.44604 93.0001 1.50002C90.8895 1.60837 89.7827 1.8988 88.0001 3.00002C85.9868 4.19075 85.2001 5.31459 84.5001 8.00002C84.272 10.1288 84.4881 11.1165 85.5001 12.5C86.0586 13.2397 86.7959 13.8672 89.0001 15L94.5001 17.5C95.7823 18.3023 96.3834 18.8935 97.0001 20.5C97.3386 22.8273 96.8214 23.9212 95.0001 25.5C92.9849 26.4269 91.8833 26.5094 90.0001 25.5C88.5539 24.0328 88.0087 23.0947 88.0001 21H83.5001C83.2457 22.7314 83.4476 23.7233 84.5001 25.5C85.2676 26.6522 85.86 27.3476 87.5001 28.5C88.8762 29.4272 89.9289 29.7677 92.5001 30C95.0212 29.9691 96.2509 29.6538 98.0001 28.5C99.2931 27.3459 99.8388 26.6824 100.5 25.5Z" fill="#ffffff"/>
<path d="M63.8438 2L68.3441 2.00001V29.5H63.8441L63.8438 2Z" fill="#ffffff"/>
<path d="M34.5 14.5V18.5H40C42.2162 18.0927 43.1034 17.5867 44.5 16.5C46.4997 14.5369 47.0527 13.1022 47 10C46.5506 7.02642 46.0678 5.67503 44.5 4C42.4663 2.42317 41.13 2.05779 38.5 2H31V6H38.5C41.3447 6.50424 42.0688 7.53153 42.5 10C42.7181 12.7581 42.1814 13.7509 40 14.5H34.5Z" fill="#ffffff"/>
<path d="M31 6H32.5L35.5 8V18.5V29.5H31V6Z" fill="#ffffff"/>
<path d="M35.5 17.5H40.5L49.5 29.5H44L35.5 17.5Z" fill="#ffffff"/>
<path d="M3 14.5V18.5H9C11.4397 18.2034 12.3332 17.7003 13.5 16.5C15.4997 14.5369 16.0527 13.1022 16 10C15.7964 6.94409 15.275 5.60681 13.5 4C11.3947 2.70591 10.0714 2.29136 7.5 2H0V6H7.5C10.4661 6.21952 11.2038 7.2162 11.5 10C11.5461 12.6097 10.9452 13.5476 9 14.5H3Z" fill="#ffffff"/>
<path d="M0 6H1.5L4 8V18.5V29.5H0V6Z" fill="#ffffff"/>
</svg>
